<?xml version="1.0" encoding="UTF-8"?><svg id="b" xmlns="http://www.w3.org/2000/svg" viewBox="0 0 3655.71 1245.83"><g id="c"><path d="M626.19,531.71V139.7c176.15,46.35,314.84,208.26,359.28,392.01h-359.28Z" style="fill:#12757a;"/><path d="M626.19,1183.17v-391.73h359.28c-44.53,183.76-183.22,345.38-359.28,391.73Z" style="fill:#12757a;"/><path d="M626.19,529.74h359.28c9.97,41.84,15.18,85.67,15.18,130.8s-5.22,89.06-15.18,130.9h-359.28" style="fill:#c4e4e4;"/><rect y="530.16" width="335.34" height="264.64" style="fill:#c4e4e4;"/><path d="M22.73,1184.35h311.76v-392.06H1.87v370.3c0,12.02,9.34,21.76,20.86,21.76Z" style="fill:#12757a; fill-rule:evenodd;"/><path d="M.8,530.58h333.68V139.7H21.66c-11.52,0-20.86,9.74-20.86,21.76v369.13Z" style="fill:#12757a; fill-rule:evenodd;"/><rect x="334.49" y="791.03" width="291.87" height="393.55" style="fill:#c4e4e4;"/><rect x="334.09" y="138.59" width="292.28" height="392.83" style="fill:#c4e4e4;"/><text transform="translate(1178.63 848.61)" style="fill:#fff; font-family:Poppins-SemiBold, Poppins; font-size:610px; font-weight:600;"><tspan x="0" y="0">Docix.io</tspan></text><text transform="translate(1211.48 1044.98)" style="fill:#fff; font-family:Poppins-Regular, Poppins; font-size:150px;"><tspan x="0" y="0">Simple document collaboration</tspan></text></g></svg>