<?xml version="1.0" encoding="UTF-8"?><svg id="b" xmlns="http://www.w3.org/2000/svg" viewBox="0 0 119.95 120.19"><g id="c"><path d="M75.06,45.17V.13c21.12,5.33,37.74,23.93,43.07,45.05h-43.07Z" style="fill:#12757a;"/><path d="M75.06,120.03v-45.01h43.07c-5.34,21.12-21.96,39.69-43.07,45.01Z" style="fill:#12757a;"/><path d="M75.06,44.95h43.07c1.19,4.81,1.82,9.84,1.82,15.03s-.63,10.23-1.82,15.04h-43.07" style="fill:#c4e4e4;"/><rect y="44.99" width="40.2" height="30.41" style="fill:#c4e4e4;"/><path d="M2.72,120.17h37.37v-45.05H.22v42.55c0,1.38,1.12,2.5,2.5,2.5Z" style="fill:#12757a; fill-rule:evenodd;"/><path d="M.1,45.04h40V.13H2.6C1.22.13.1,1.25.1,2.63v42.42Z" style="fill:#12757a; fill-rule:evenodd;"/><rect x="40.1" y="74.97" width="34.99" height="45.22" style="fill:#c4e4e4;"/><rect x="40.05" width="35.04" height="45.14" style="fill:#c4e4e4;"/></g></svg>